<svg width="16" height="14" viewBox="0 0 16 14" fill="none" xmlns="http://www.w3.org/2000/svg">
<path d="M9.72578 0.276633L15.3508 5.90163C15.4382 5.98873 15.5075 6.09222 15.5548 6.20618C15.6022 6.32013 15.6265 6.44231 15.6265 6.5657C15.6265 6.68908 15.6022 6.81126 15.5548 6.92521C15.5075 7.03917 15.4382 7.14266 15.3508 7.22976L9.72578 12.8548C9.54966 13.0309 9.31079 13.1298 9.06172 13.1298C8.81265 13.1298 8.57378 13.0309 8.39766 12.8548C8.22154 12.6786 8.12259 12.4398 8.12259 12.1907C8.12259 11.9416 8.22154 11.7028 8.39766 11.5266L12.4219 7.50241L0.9375 7.50241C0.68886 7.50241 0.450403 7.40364 0.274587 7.22783C0.0987721 7.05201 7.53207e-08 6.81355 7.82857e-08 6.56491C8.12507e-08 6.31627 0.0987721 6.07782 0.274587 5.902C0.450403 5.72619 0.68886 5.62741 0.9375 5.62741L12.4219 5.62741L8.39687 1.6032C8.22075 1.42708 8.12181 1.18821 8.12181 0.939135C8.12181 0.690063 8.22075 0.451192 8.39687 0.275072C8.57299 0.0989514 8.81187 5.82713e-06 9.06094 5.8301e-06C9.31001 5.83307e-06 9.54888 0.0989515 9.725 0.275072L9.72578 0.276633Z" fill="white"/>
</svg>
